<?xml version="1.0" standalone="no"?>
<!DOCTYPE svg PUBLIC "-//W3C//DTD SVG 20010904//EN"
 "http://www.w3.org/TR/2001/REC-SVG-20010904/DTD/svg10.dtd">
<svg version="1.0" xmlns="http://www.w3.org/2000/svg"
 width="600.000000pt" height="338.000000pt" viewBox="0 0 600.000000 338.000000"
 preserveAspectRatio="xMidYMid meet">

<g transform="translate(0.000000,338.000000) scale(0.100000,-0.100000)"
fill="#000000" stroke="none">
<path d="M0 1690 l0 -1690 3000 0 3000 0 0 1690 0 1690 -3000 0 -3000 0 0
-1690z m3184 1538 c27 -156 36 -265 36 -453 0 -301 -39 -550 -131 -830 -50
-153 -155 -395 -171 -395 -5 0 -7 -4 -3 -9 3 -5 0 -13 -6 -17 -7 -4 -9 -3 -5
4 3 6 -1 17 -9 25 -8 9 -15 20 -15 25 0 5 -11 13 -25 16 -16 4 -30 19 -39 40
-8 19 -24 37 -35 41 -12 3 -21 10 -21 15 0 4 -18 29 -40 56 -21 26 -49 68 -62
93 -13 25 -26 48 -29 51 -25 21 -64 149 -75 249 -12 100 -15 281 -6 281 5 0
12 42 16 93 8 121 38 260 71 339 42 100 57 132 66 148 5 8 13 24 18 35 5 11
30 40 55 63 25 23 46 49 46 56 0 8 15 21 33 30 17 9 50 28 72 41 50 30 149 63
198 67 22 1 37 7 37 15 0 35 9 4 24 -79z"/>
</g>
</svg>
