<?xml version="1.0" standalone="no"?>
<!DOCTYPE svg PUBLIC "-//W3C//DTD SVG 1.0//EN" "http://www.w3.org/TR/2001/REC-SVG-20010904/DTD/svg10.dtd">
<svg xmlns="http://www.w3.org/2000/svg" xmlns:xlink="http://www.w3.org/1999/xlink" id="body_1" width="1296" height="731">

<g transform="matrix(2.1600003 0 0 2.1600003 -0 0.9200171)">
	<g transform="matrix(0.1 0 -0 -0.1 0 338)">
        <path d="M0 1690L0 0L3000 0L6000 0L6000 1690L6000 3380L3000 3380L0 3380L0 1690zM3184 3228C 3211 3072 3220 2963 3220 2775C 3220 2474 3181 2225 3089 1945C 3039 1792 2934 1550 2918 1550C 2913 1550 2911 1546 2915 1541C 2918 1536 2915 1528 2909 1524C 2902 1520 2900 1521 2904 1528C 2907 1534 2903 1545 2895 1553C 2887 1562 2880 1573 2880 1578C 2880 1583 2869 1591 2855 1594C 2839 1598 2825 1613 2816 1634C 2808 1653 2792 1671 2781 1675C 2769 1678 2760 1685 2760 1690C 2760 1694 2742 1719 2720 1746C 2699 1772 2671 1814 2658 1839C 2645 1864 2632 1887 2629 1890C 2604 1911 2565 2039 2554 2139C 2542 2239 2539 2420 2548 2420C 2553 2420 2560 2462 2564 2513C 2572 2634 2602 2773 2635 2852C 2677 2952 2692 2984 2701 3000C 2706 3008 2714 3024 2719 3035C 2724 3046 2749 3075 2774 3098C 2799 3121 2820 3147 2820 3154C 2820 3162 2835 3175 2853 3184C 2870 3193 2903 3212 2925 3225C 2975 3255 3074 3288 3123 3292C 3145 3293 3160 3299 3160 3307C 3160 3342 3169 3311 3184 3228z" stroke="none" fill="#000000" fill-rule="nonzero" />
	</g>
</g>
</svg>